<svg xmlns="http://www.w3.org/2000/svg" xmlns:xlink="http://www.w3.org/1999/xlink" version="1.1" x="0px" y="0px" viewBox="0 0 100 100" enable-background="new 0 0 100 100" xml:space="preserve"><path d="M9.251,89.969c-0.521,0-1.032-0.203-1.416-0.587c-0.595-0.595-0.753-1.498-0.396-2.26L24.792,50L7.438,12.878  c-0.356-0.762-0.198-1.666,0.396-2.26c0.595-0.594,1.496-0.755,2.26-0.4l81.5,37.969C92.3,48.516,92.75,49.223,92.75,50  s-0.45,1.484-1.155,1.813l-81.5,37.969C9.824,89.908,9.536,89.969,9.251,89.969z M13.392,16.167l15.42,32.986  c0.251,0.537,0.251,1.157,0,1.694l-15.42,32.986L86.014,50L13.392,16.167z"></path></svg>